<?xml version="1.0" encoding="utf-8"?>
<svg version="1.1" id="カービィ" xmlns="http://www.w3.org/2000/svg" xmlns:xlink="http://www.w3.org/1999/xlink" x="0px" y="0px"
	 viewBox="0 0 178.8 178.8" style="enable-background:new 0 0 178.8 178.8;" xml:space="preserve">
<style type="text/css">
	.st0{fill:#935461;}
	.st1{fill:#F9BFC6;}
	.st2{fill:#F7ACB5;}
	.st3{fill:#F58F98;}
	.st4{fill:#FFFFFF;}
</style>
<g>
	<path class="st0" d="M89.4,0C40.1,0,0,40.1,0,89.4s40.1,89.4,89.4,89.4c49.3,0,89.4-40.1,89.4-89.4S138.7,0,89.4,0"/>
	<path class="st1" d="M168.6,89.4c0,43.8-35.5,79.2-79.2,79.2c-43.7,0-79.2-35.5-79.2-79.2c0-43.7,35.5-79.2,79.2-79.2
		C133.2,10.2,168.6,45.7,168.6,89.4"/>
	<path class="st0" d="M102.6,99.1c0-1.3-1-2.3-2.3-2.3c-1.3,0-2.3,1-2.3,2.3c0,0.4,0.1,0.8,0.3,1.1c-2.7,4.4-7.8,4.6-8.9,4.6
		c-1.1,0-6.2-0.3-8.9-4.6c0.2-0.3,0.3-0.7,0.3-1.1c0-1.3-1-2.3-2.3-2.3c-1.3,0-2.3,1-2.3,2.3c0,1.2,0.9,2.1,2,2.3
		c3.3,5.7,9.8,6,11.2,6c1.4,0,7.8-0.3,11.2-6C101.7,101.2,102.6,100.2,102.6,99.1"/>
	<path class="st2" d="M63.2,85.7c0,4.8-6.2,8.7-13.8,8.7c-7.6,0-13.8-3.9-13.8-8.7c0-4.8,6.2-8.7,13.8-8.7
		C57,77,63.2,80.9,63.2,85.7"/>
	<path class="st3" d="M60.4,85.7c0,3.4-5,6.1-11.1,6.1c-6.1,0-11.1-2.7-11.1-6.1c0-3.3,5-6.1,11.1-6.1
		C55.5,79.6,60.4,82.3,60.4,85.7"/>
	<path class="st2" d="M115.7,85.7c0,4.8,6.2,8.7,13.8,8.7c7.6,0,13.8-3.9,13.8-8.7c0-4.8-6.2-8.7-13.8-8.7
		C121.9,77,115.7,80.9,115.7,85.7"/>
	<path class="st3" d="M118.5,85.7c0,3.4,4.9,6.1,11.1,6.1c6.1,0,11.1-2.7,11.1-6.1c0-3.3-5-6.1-11.1-6.1
		C123.4,79.6,118.5,82.3,118.5,85.7"/>
	<path class="st0" d="M69.6,37.3c-9.3-0.2-11,15.5-11.2,25.9c-0.3,10.4,0.6,26.2,9.8,26.4c9.3,0.2,11-15.5,11.2-25.9
		C79.7,53.4,78.8,37.6,69.6,37.3"/>
	<path class="st4" d="M63.5,52.4c-0.2,6.4,1.9,10.3,5.5,10.4c3.6,0.1,5.9-3.7,6.1-10.1c0.2-6.4-1.9-10.3-5.5-10.4
		C65.9,42.2,63.7,46,63.5,52.4"/>
	<path class="st0" d="M109.3,37.3c9.3-0.2,11,15.5,11.2,25.9c0.3,10.4-0.6,26.2-9.9,26.4c-9.3,0.2-11-15.5-11.2-25.9
		C99.2,53.4,100,37.6,109.3,37.3"/>
	<path class="st4" d="M115.4,52.4c0.2,6.4-1.9,10.3-5.5,10.4c-3.6,0.1-5.9-3.7-6.1-10.1c-0.2-6.4,1.9-10.3,5.5-10.4
		C112.9,42.2,115.2,46,115.4,52.4"/>
</g>
</svg>